<?xml version="1.0" encoding="UTF-8" standalone="no"?>
<!DOCTYPE svg PUBLIC "-//W3C//DTD SVG 1.1//EN"
 "http://www.w3.org/Graphics/SVG/1.1/DTD/svg11.dtd">
<!-- Generated by graphviz version 2.47.3 (20210619.1520)
 -->
<!-- Title: dependencies Pages: 1 -->
<svg width="362pt" height="247pt"
 viewBox="0.00 0.00 362.00 246.80" xmlns="http://www.w3.org/2000/svg" xmlns:xlink="http://www.w3.org/1999/xlink">
<g id="graph0" class="graph" transform="scale(1 1) rotate(0) translate(4 242.8)">
<title>dependencies</title>
<polygon fill="white" stroke="transparent" points="-4,4 -4,-242.8 358,-242.8 358,4 -4,4"/>
<text text-anchor="middle" x="177" y="-8.2" font-family="sans-serif" font-size="14.00">dependencies</text>
<g id="clust1" class="cluster">
<title>cluster_SharedModule</title>
<polygon fill="none" stroke="black" stroke-dasharray="1,5" points="8,-32.8 8,-230.8 346,-230.8 346,-32.8 8,-32.8"/>
</g>
<g id="clust6" class="cluster">
<title>cluster_SharedModule_exports</title>
<polygon fill="none" stroke="black" points="16,-170.8 16,-222.8 338,-222.8 338,-170.8 16,-170.8"/>
</g>
<g id="clust2" class="cluster">
<title>cluster_SharedModule_declarations</title>
<polygon fill="none" stroke="black" points="20,-40.8 20,-92.8 335,-92.8 335,-40.8 20,-40.8"/>
</g>
<!-- DriverStandingComponent -->
<g id="node1" class="node">
<title>DriverStandingComponent</title>
<polygon fill="#ffffb3" stroke="black" points="326.64,-84.8 159.36,-84.8 159.36,-48.8 326.64,-48.8 326.64,-84.8"/>
<text text-anchor="middle" x="243" y="-62.6" font-family="Times,serif" font-size="14.00">DriverStandingComponent</text>
</g>
<!-- SharedModule -->
<g id="node3" class="node">
<title>SharedModule</title>
<polygon fill="#8dd3c7" stroke="black" points="134.42,-149.8 131.42,-153.8 110.42,-153.8 107.42,-149.8 35.58,-149.8 35.58,-113.8 134.42,-113.8 134.42,-149.8"/>
<text text-anchor="middle" x="85" y="-127.6" font-family="Times,serif" font-size="14.00">SharedModule</text>
</g>
<!-- DriverStandingComponent&#45;&gt;SharedModule -->
<g id="edge1" class="edge">
<title>DriverStandingComponent&#45;&gt;SharedModule</title>
<path fill="none" stroke="black" d="M270.94,-84.82C270.94,-102.17 270.94,-125.8 270.94,-125.8 270.94,-125.8 144.34,-125.8 144.34,-125.8"/>
<polygon fill="black" stroke="black" points="144.34,-122.3 134.34,-125.8 144.34,-129.3 144.34,-122.3"/>
</g>
<!-- TableComponent -->
<g id="node2" class="node">
<title>TableComponent</title>
<polygon fill="#ffffb3" stroke="black" points="141.7,-84.8 28.3,-84.8 28.3,-48.8 141.7,-48.8 141.7,-84.8"/>
<text text-anchor="middle" x="85" y="-62.6" font-family="Times,serif" font-size="14.00">TableComponent</text>
</g>
<!-- TableComponent&#45;&gt;SharedModule -->
<g id="edge2" class="edge">
<title>TableComponent&#45;&gt;SharedModule</title>
<path fill="none" stroke="black" d="M85,-84.91C85,-84.91 85,-103.79 85,-103.79"/>
<polygon fill="black" stroke="black" points="81.5,-103.79 85,-113.79 88.5,-103.79 81.5,-103.79"/>
</g>
<!-- DriverStandingComponent  -->
<g id="node4" class="node">
<title>DriverStandingComponent </title>
<polygon fill="#fb8072" stroke="black" points="329.64,-214.8 158.36,-214.8 158.36,-178.8 329.64,-178.8 329.64,-214.8"/>
<text text-anchor="middle" x="244" y="-192.6" font-family="Times,serif" font-size="14.00">DriverStandingComponent </text>
</g>
<!-- SharedModule&#45;&gt;DriverStandingComponent  -->
<g id="edge3" class="edge">
<title>SharedModule&#45;&gt;DriverStandingComponent </title>
<path fill="none" stroke="black" stroke-dasharray="5,2" d="M134.54,-137.8C171.3,-137.8 215.06,-137.8 215.06,-137.8 215.06,-137.8 215.06,-168.78 215.06,-168.78"/>
<polygon fill="black" stroke="black" points="211.56,-168.78 215.06,-178.78 218.56,-168.78 211.56,-168.78"/>
</g>
<!-- TableComponent  -->
<g id="node5" class="node">
<title>TableComponent </title>
<polygon fill="#fb8072" stroke="black" points="140.21,-214.8 23.79,-214.8 23.79,-178.8 140.21,-178.8 140.21,-214.8"/>
<text text-anchor="middle" x="82" y="-192.6" font-family="Times,serif" font-size="14.00">TableComponent </text>
</g>
<!-- SharedModule&#45;&gt;TableComponent  -->
<g id="edge4" class="edge">
<title>SharedModule&#45;&gt;TableComponent </title>
<path fill="none" stroke="black" stroke-dasharray="5,2" d="M85,-149.91C85,-149.91 85,-168.79 85,-168.79"/>
<polygon fill="black" stroke="black" points="81.5,-168.79 85,-178.79 88.5,-168.79 81.5,-168.79"/>
</g>
</g>
</svg>
