<?xml version="1.0" encoding="UTF-8" standalone="no"?>
<!DOCTYPE svg PUBLIC "-//W3C//DTD SVG 1.1//EN"
 "http://www.w3.org/Graphics/SVG/1.1/DTD/svg11.dtd">
<!-- Generated by graphviz version 2.47.3 (20210619.1520)
 -->
<!-- Title: dependencies Pages: 1 -->
<svg width="740pt" height="174pt"
 viewBox="0.00 0.00 740.00 173.80" xmlns="http://www.w3.org/2000/svg" xmlns:xlink="http://www.w3.org/1999/xlink">
<g id="graph0" class="graph" transform="scale(1 1) rotate(0) translate(4 169.8)">
<title>dependencies</title>
<polygon fill="white" stroke="transparent" points="-4,4 -4,-169.8 736,-169.8 736,4 -4,4"/>
<text text-anchor="middle" x="366" y="-8.2" font-family="sans-serif" font-size="14.00">dependencies</text>
<g id="clust1" class="cluster">
<title>cluster_HomeModule</title>
<polygon fill="none" stroke="black" stroke-dasharray="1,5" points="8,-32.8 8,-157.8 724,-157.8 724,-32.8 8,-32.8"/>
</g>
<g id="clust7" class="cluster">
<title>cluster_HomeModule_providers</title>
<polygon fill="none" stroke="black" points="552,-40.8 552,-92.8 716,-92.8 716,-40.8 552,-40.8"/>
</g>
<g id="clust4" class="cluster">
<title>cluster_HomeModule_imports</title>
<polygon fill="none" stroke="black" points="156,-40.8 156,-92.8 544,-92.8 544,-40.8 156,-40.8"/>
</g>
<g id="clust2" class="cluster">
<title>cluster_HomeModule_declarations</title>
<polygon fill="none" stroke="black" points="16,-40.8 16,-92.8 148,-92.8 148,-40.8 16,-40.8"/>
</g>
<!-- HomeComponent -->
<g id="node1" class="node">
<title>HomeComponent</title>
<polygon fill="#ffffb3" stroke="black" points="139.55,-84.8 24.45,-84.8 24.45,-48.8 139.55,-48.8 139.55,-84.8"/>
<text text-anchor="middle" x="82" y="-62.6" font-family="Times,serif" font-size="14.00">HomeComponent</text>
</g>
<!-- HomeModule -->
<g id="node2" class="node">
<title>HomeModule</title>
<polygon fill="#8dd3c7" stroke="black" points="376.76,-149.8 373.76,-153.8 352.76,-153.8 349.76,-149.8 283.24,-149.8 283.24,-113.8 376.76,-113.8 376.76,-149.8"/>
<text text-anchor="middle" x="330" y="-127.6" font-family="Times,serif" font-size="14.00">HomeModule</text>
</g>
<!-- HomeComponent&#45;&gt;HomeModule -->
<g id="edge1" class="edge">
<title>HomeComponent&#45;&gt;HomeModule</title>
<path fill="none" stroke="black" d="M82,-85.08C82,-106.12 82,-137.8 82,-137.8 82,-137.8 273.06,-137.8 273.06,-137.8"/>
<polygon fill="black" stroke="black" points="273.06,-141.3 283.06,-137.8 273.06,-134.3 273.06,-141.3"/>
</g>
<!-- HomeRoutingModule -->
<g id="node3" class="node">
<title>HomeRoutingModule</title>
<polygon fill="#8dd3c7" stroke="black" points="536.38,-84.8 533.38,-88.8 512.38,-88.8 509.38,-84.8 397.62,-84.8 397.62,-48.8 536.38,-48.8 536.38,-84.8"/>
<text text-anchor="middle" x="467" y="-62.6" font-family="Times,serif" font-size="14.00">HomeRoutingModule</text>
</g>
<!-- HomeRoutingModule&#45;&gt;HomeModule -->
<g id="edge2" class="edge">
<title>HomeRoutingModule&#45;&gt;HomeModule</title>
<path fill="none" stroke="black" d="M467,-84.82C467,-102.17 467,-125.8 467,-125.8 467,-125.8 386.76,-125.8 386.76,-125.8"/>
<polygon fill="black" stroke="black" points="386.76,-122.3 376.76,-125.8 386.76,-129.3 386.76,-122.3"/>
</g>
<!-- LayoutModule -->
<g id="node4" class="node">
<title>LayoutModule</title>
<polygon fill="#8dd3c7" stroke="black" points="379.71,-84.8 376.71,-88.8 355.71,-88.8 352.71,-84.8 280.29,-84.8 280.29,-48.8 379.71,-48.8 379.71,-84.8"/>
<text text-anchor="middle" x="330" y="-62.6" font-family="Times,serif" font-size="14.00">LayoutModule</text>
</g>
<!-- LayoutModule&#45;&gt;HomeModule -->
<g id="edge3" class="edge">
<title>LayoutModule&#45;&gt;HomeModule</title>
<path fill="none" stroke="black" d="M330,-84.91C330,-84.91 330,-103.79 330,-103.79"/>
<polygon fill="black" stroke="black" points="326.5,-103.79 330,-113.79 333.5,-103.79 326.5,-103.79"/>
</g>
<!-- SharedModule -->
<g id="node5" class="node">
<title>SharedModule</title>
<polygon fill="#8dd3c7" stroke="black" points="262.42,-84.8 259.42,-88.8 238.42,-88.8 235.42,-84.8 163.58,-84.8 163.58,-48.8 262.42,-48.8 262.42,-84.8"/>
<text text-anchor="middle" x="213" y="-62.6" font-family="Times,serif" font-size="14.00">SharedModule</text>
</g>
<!-- SharedModule&#45;&gt;HomeModule -->
<g id="edge4" class="edge">
<title>SharedModule&#45;&gt;HomeModule</title>
<path fill="none" stroke="black" d="M213,-84.82C213,-102.17 213,-125.8 213,-125.8 213,-125.8 273.09,-125.8 273.09,-125.8"/>
<polygon fill="black" stroke="black" points="273.09,-129.3 283.09,-125.8 273.09,-122.3 273.09,-129.3"/>
</g>
<!-- RaceApiService -->
<g id="node6" class="node">
<title>RaceApiService</title>
<ellipse fill="#fdb462" stroke="black" cx="634" cy="-66.8" rx="73.55" ry="18"/>
<text text-anchor="middle" x="634" y="-62.6" font-family="Times,serif" font-size="14.00">RaceApiService</text>
</g>
<!-- RaceApiService&#45;&gt;HomeModule -->
<g id="edge5" class="edge">
<title>RaceApiService&#45;&gt;HomeModule</title>
<path fill="none" stroke="black" d="M634,-85.08C634,-106.12 634,-137.8 634,-137.8 634,-137.8 386.83,-137.8 386.83,-137.8"/>
<polygon fill="black" stroke="black" points="386.83,-134.3 376.83,-137.8 386.83,-141.3 386.83,-134.3"/>
</g>
</g>
</svg>
