<?xml version="1.0" encoding="UTF-8" standalone="no"?>
<!DOCTYPE svg PUBLIC "-//W3C//DTD SVG 1.1//EN"
 "http://www.w3.org/Graphics/SVG/1.1/DTD/svg11.dtd">
<!-- Generated by graphviz version 2.47.3 (20210619.1520)
 -->
<!-- Title: dependencies Pages: 1 -->
<svg width="704pt" height="247pt"
 viewBox="0.00 0.00 704.00 246.80" xmlns="http://www.w3.org/2000/svg" xmlns:xlink="http://www.w3.org/1999/xlink">
<g id="graph0" class="graph" transform="scale(1 1) rotate(0) translate(4 242.8)">
<title>dependencies</title>
<polygon fill="white" stroke="transparent" points="-4,4 -4,-242.8 700,-242.8 700,4 -4,4"/>
<text text-anchor="middle" x="348" y="-8.2" font-family="sans-serif" font-size="14.00">dependencies</text>
<g id="clust1" class="cluster">
<title>cluster_AppModule</title>
<polygon fill="none" stroke="black" stroke-dasharray="1,5" points="8,-32.8 8,-230.8 688,-230.8 688,-32.8 8,-32.8"/>
</g>
<g id="clust2" class="cluster">
<title>cluster_AppModule_declarations</title>
<polygon fill="none" stroke="black" points="402,-40.8 402,-92.8 680,-92.8 680,-40.8 402,-40.8"/>
</g>
<g id="clust7" class="cluster">
<title>cluster_AppModule_bootstrap</title>
<polygon fill="none" stroke="black" points="260,-170.8 260,-222.8 384,-222.8 384,-170.8 260,-170.8"/>
</g>
<g id="clust5" class="cluster">
<title>cluster_AppModule_imports</title>
<polygon fill="none" stroke="black" points="16,-40.8 16,-92.8 394,-92.8 394,-40.8 16,-40.8"/>
</g>
<!-- AppComponent -->
<g id="node1" class="node">
<title>AppComponent</title>
<polygon fill="#ffffb3" stroke="black" points="671.94,-84.8 566.06,-84.8 566.06,-48.8 671.94,-48.8 671.94,-84.8"/>
<text text-anchor="middle" x="619" y="-62.6" font-family="Times,serif" font-size="14.00">AppComponent</text>
</g>
<!-- AppModule -->
<g id="node3" class="node">
<title>AppModule</title>
<polygon fill="#8dd3c7" stroke="black" points="363.66,-149.8 360.66,-153.8 339.66,-153.8 336.66,-149.8 280.34,-149.8 280.34,-113.8 363.66,-113.8 363.66,-149.8"/>
<text text-anchor="middle" x="322" y="-127.6" font-family="Times,serif" font-size="14.00">AppModule</text>
</g>
<!-- AppComponent&#45;&gt;AppModule -->
<g id="edge1" class="edge">
<title>AppComponent&#45;&gt;AppModule</title>
<path fill="none" stroke="black" d="M619,-85.08C619,-106.12 619,-137.8 619,-137.8 619,-137.8 373.92,-137.8 373.92,-137.8"/>
<polygon fill="black" stroke="black" points="373.92,-134.3 363.92,-137.8 373.92,-141.3 373.92,-134.3"/>
</g>
<!-- NotFoundComponent -->
<g id="node2" class="node">
<title>NotFoundComponent</title>
<polygon fill="#ffffb3" stroke="black" points="548.11,-84.8 409.89,-84.8 409.89,-48.8 548.11,-48.8 548.11,-84.8"/>
<text text-anchor="middle" x="479" y="-62.6" font-family="Times,serif" font-size="14.00">NotFoundComponent</text>
</g>
<!-- NotFoundComponent&#45;&gt;AppModule -->
<g id="edge2" class="edge">
<title>NotFoundComponent&#45;&gt;AppModule</title>
<path fill="none" stroke="black" d="M479,-84.82C479,-102.17 479,-125.8 479,-125.8 479,-125.8 373.66,-125.8 373.66,-125.8"/>
<polygon fill="black" stroke="black" points="373.66,-122.3 363.66,-125.8 373.66,-129.3 373.66,-122.3"/>
</g>
<!-- AppComponent  -->
<g id="node7" class="node">
<title>AppComponent </title>
<polygon fill="#80b1d3" stroke="black" points="376.44,-214.8 267.56,-214.8 267.56,-178.8 376.44,-178.8 376.44,-214.8"/>
<text text-anchor="middle" x="322" y="-192.6" font-family="Times,serif" font-size="14.00">AppComponent </text>
</g>
<!-- AppModule&#45;&gt;AppComponent  -->
<g id="edge6" class="edge">
<title>AppModule&#45;&gt;AppComponent </title>
<path fill="none" stroke="black" stroke-dasharray="1,5" d="M322,-149.91C322,-149.91 322,-168.79 322,-168.79"/>
<polygon fill="black" stroke="black" points="318.5,-168.79 322,-178.79 325.5,-168.79 318.5,-168.79"/>
</g>
<!-- AppRoutingModule -->
<g id="node4" class="node">
<title>AppRoutingModule</title>
<polygon fill="#8dd3c7" stroke="black" points="386.27,-84.8 383.27,-88.8 362.27,-88.8 359.27,-84.8 257.73,-84.8 257.73,-48.8 386.27,-48.8 386.27,-84.8"/>
<text text-anchor="middle" x="322" y="-62.6" font-family="Times,serif" font-size="14.00">AppRoutingModule</text>
</g>
<!-- AppRoutingModule&#45;&gt;AppModule -->
<g id="edge3" class="edge">
<title>AppRoutingModule&#45;&gt;AppModule</title>
<path fill="none" stroke="black" d="M322,-84.91C322,-84.91 322,-103.79 322,-103.79"/>
<polygon fill="black" stroke="black" points="318.5,-103.79 322,-113.79 325.5,-103.79 318.5,-103.79"/>
</g>
<!-- LayoutModule -->
<g id="node5" class="node">
<title>LayoutModule</title>
<polygon fill="#8dd3c7" stroke="black" points="239.71,-84.8 236.71,-88.8 215.71,-88.8 212.71,-84.8 140.29,-84.8 140.29,-48.8 239.71,-48.8 239.71,-84.8"/>
<text text-anchor="middle" x="190" y="-62.6" font-family="Times,serif" font-size="14.00">LayoutModule</text>
</g>
<!-- LayoutModule&#45;&gt;AppModule -->
<g id="edge4" class="edge">
<title>LayoutModule&#45;&gt;AppModule</title>
<path fill="none" stroke="black" d="M190,-84.82C190,-102.17 190,-125.8 190,-125.8 190,-125.8 270.23,-125.8 270.23,-125.8"/>
<polygon fill="black" stroke="black" points="270.23,-129.3 280.23,-125.8 270.23,-122.3 270.23,-129.3"/>
</g>
<!-- SharedModule -->
<g id="node6" class="node">
<title>SharedModule</title>
<polygon fill="#8dd3c7" stroke="black" points="122.42,-84.8 119.42,-88.8 98.42,-88.8 95.42,-84.8 23.58,-84.8 23.58,-48.8 122.42,-48.8 122.42,-84.8"/>
<text text-anchor="middle" x="73" y="-62.6" font-family="Times,serif" font-size="14.00">SharedModule</text>
</g>
<!-- SharedModule&#45;&gt;AppModule -->
<g id="edge5" class="edge">
<title>SharedModule&#45;&gt;AppModule</title>
<path fill="none" stroke="black" d="M73,-85.08C73,-106.12 73,-137.8 73,-137.8 73,-137.8 270.32,-137.8 270.32,-137.8"/>
<polygon fill="black" stroke="black" points="270.32,-141.3 280.32,-137.8 270.32,-134.3 270.32,-141.3"/>
</g>
</g>
</svg>
