<?xml version="1.0" encoding="UTF-8" standalone="no"?>
<!DOCTYPE svg PUBLIC "-//W3C//DTD SVG 1.1//EN"
 "http://www.w3.org/Graphics/SVG/1.1/DTD/svg11.dtd">
<!-- Generated by graphviz version 2.47.3 (20210619.1520)
 -->
<!-- Title: dependencies Pages: 1 -->
<svg width="2737pt" height="253pt"
 viewBox="0.00 0.00 2737.00 252.80" xmlns="http://www.w3.org/2000/svg" xmlns:xlink="http://www.w3.org/1999/xlink">
<g id="graph0" class="graph" transform="scale(1 1) rotate(0) translate(4 248.8)">
<title>dependencies</title>
<polygon fill="white" stroke="transparent" points="-4,4 -4,-248.8 2733,-248.8 2733,4 -4,4"/>
<text text-anchor="middle" x="1364.5" y="-8.2" font-family="sans-serif" font-size="14.00">dependencies</text>
<g id="clust1" class="cluster">
<title>cluster_AppModule</title>
<polygon fill="none" stroke="black" stroke-dasharray="1,5" points="8,-32.8 8,-236.8 688,-236.8 688,-32.8 8,-32.8"/>
</g>
<g id="clust2" class="cluster">
<title>cluster_AppModule_declarations</title>
<polygon fill="none" stroke="black" points="16,-40.8 16,-92.8 294,-92.8 294,-40.8 16,-40.8"/>
</g>
<g id="clust5" class="cluster">
<title>cluster_AppModule_imports</title>
<polygon fill="none" stroke="black" points="302,-40.8 302,-92.8 680,-92.8 680,-40.8 302,-40.8"/>
</g>
<g id="clust7" class="cluster">
<title>cluster_AppModule_bootstrap</title>
<polygon fill="none" stroke="black" points="312,-176.8 312,-228.8 436,-228.8 436,-176.8 312,-176.8"/>
</g>
<g id="clust15" class="cluster">
<title>cluster_HomeModule</title>
<polygon fill="none" stroke="black" stroke-dasharray="1,5" points="2085,-32.8 2085,-160.8 2567,-160.8 2567,-32.8 2085,-32.8"/>
</g>
<g id="clust16" class="cluster">
<title>cluster_HomeModule_declarations</title>
<polygon fill="none" stroke="black" points="2427,-40.8 2427,-92.8 2559,-92.8 2559,-40.8 2427,-40.8"/>
</g>
<g id="clust18" class="cluster">
<title>cluster_HomeModule_imports</title>
<polygon fill="none" stroke="black" points="2265,-40.8 2265,-92.8 2419,-92.8 2419,-40.8 2265,-40.8"/>
</g>
<g id="clust21" class="cluster">
<title>cluster_HomeModule_providers</title>
<polygon fill="none" stroke="black" points="2093,-40.8 2093,-92.8 2257,-92.8 2257,-40.8 2093,-40.8"/>
</g>
<g id="clust28" class="cluster">
<title>cluster_LayoutModule</title>
<polygon fill="none" stroke="black" stroke-dasharray="1,5" points="696,-100.8 696,-168.8 1408,-168.8 1408,-100.8 696,-100.8"/>
</g>
<g id="clust29" class="cluster">
<title>cluster_LayoutModule_declarations</title>
<polygon fill="none" stroke="black" points="1060,-108.8 1060,-160.8 1400,-160.8 1400,-108.8 1060,-108.8"/>
</g>
<g id="clust33" class="cluster">
<title>cluster_LayoutModule_exports</title>
<polygon fill="none" stroke="black" points="704,-108.8 704,-160.8 1052,-160.8 1052,-108.8 704,-108.8"/>
</g>
<g id="clust36" class="cluster">
<title>cluster_PipesModule</title>
<polygon fill="none" stroke="black" stroke-dasharray="1,5" points="2575,-32.8 2575,-236.8 2721,-236.8 2721,-32.8 2575,-32.8"/>
</g>
<g id="clust37" class="cluster">
<title>cluster_PipesModule_declarations</title>
<polygon fill="none" stroke="black" points="2585,-40.8 2585,-92.8 2711,-92.8 2711,-40.8 2585,-40.8"/>
</g>
<g id="clust40" class="cluster">
<title>cluster_PipesModule_exports</title>
<polygon fill="none" stroke="black" points="2583,-176.8 2583,-228.8 2713,-228.8 2713,-176.8 2583,-176.8"/>
</g>
<g id="clust43" class="cluster">
<title>cluster_SharedModule</title>
<polygon fill="none" stroke="black" stroke-dasharray="1,5" points="1416,-100.8 1416,-168.8 2077,-168.8 2077,-100.8 1416,-100.8"/>
</g>
<g id="clust44" class="cluster">
<title>cluster_SharedModule_declarations</title>
<polygon fill="none" stroke="black" points="1754,-108.8 1754,-160.8 2069,-160.8 2069,-108.8 1754,-108.8"/>
</g>
<g id="clust48" class="cluster">
<title>cluster_SharedModule_exports</title>
<polygon fill="none" stroke="black" points="1424,-108.8 1424,-160.8 1746,-160.8 1746,-108.8 1424,-108.8"/>
</g>
<!-- AppComponent -->
<g id="node1" class="node">
<title>AppComponent</title>
<polygon fill="#ffffb3" stroke="black" points="285.94,-84.8 180.06,-84.8 180.06,-48.8 285.94,-48.8 285.94,-84.8"/>
<text text-anchor="middle" x="233" y="-62.6" font-family="Times,serif" font-size="14.00">AppComponent</text>
</g>
<!-- AppModule -->
<g id="node3" class="node">
<title>AppModule</title>
<polygon fill="#8dd3c7" stroke="black" points="415.66,-152.8 412.66,-156.8 391.66,-156.8 388.66,-152.8 332.34,-152.8 332.34,-116.8 415.66,-116.8 415.66,-152.8"/>
<text text-anchor="middle" x="374" y="-130.6" font-family="Times,serif" font-size="14.00">AppModule</text>
</g>
<!-- AppComponent&#45;&gt;AppModule -->
<g id="edge1" class="edge">
<title>AppComponent&#45;&gt;AppModule</title>
<path fill="none" stroke="black" d="M233,-85.07C233,-103.36 233,-128.8 233,-128.8 233,-128.8 322.08,-128.8 322.08,-128.8"/>
<polygon fill="black" stroke="black" points="322.08,-132.3 332.08,-128.8 322.08,-125.3 322.08,-132.3"/>
</g>
<!-- NotFoundComponent -->
<g id="node2" class="node">
<title>NotFoundComponent</title>
<polygon fill="#ffffb3" stroke="black" points="162.11,-84.8 23.89,-84.8 23.89,-48.8 162.11,-48.8 162.11,-84.8"/>
<text text-anchor="middle" x="93" y="-62.6" font-family="Times,serif" font-size="14.00">NotFoundComponent</text>
</g>
<!-- NotFoundComponent&#45;&gt;AppModule -->
<g id="edge2" class="edge">
<title>NotFoundComponent&#45;&gt;AppModule</title>
<path fill="none" stroke="black" d="M93,-85.09C93,-107.01 93,-140.8 93,-140.8 93,-140.8 322.23,-140.8 322.23,-140.8"/>
<polygon fill="black" stroke="black" points="322.23,-144.3 332.23,-140.8 322.23,-137.3 322.23,-144.3"/>
</g>
<!-- AppComponent  -->
<g id="node7" class="node">
<title>AppComponent </title>
<polygon fill="#80b1d3" stroke="black" points="428.44,-220.8 319.56,-220.8 319.56,-184.8 428.44,-184.8 428.44,-220.8"/>
<text text-anchor="middle" x="374" y="-198.6" font-family="Times,serif" font-size="14.00">AppComponent </text>
</g>
<!-- AppModule&#45;&gt;AppComponent  -->
<g id="edge6" class="edge">
<title>AppModule&#45;&gt;AppComponent </title>
<path fill="none" stroke="black" stroke-dasharray="1,5" d="M374,-153.02C374,-153.02 374,-174.53 374,-174.53"/>
<polygon fill="black" stroke="black" points="370.5,-174.53 374,-184.53 377.5,-174.53 370.5,-174.53"/>
</g>
<!-- AppRoutingModule -->
<g id="node4" class="node">
<title>AppRoutingModule</title>
<polygon fill="#8dd3c7" stroke="black" points="438.27,-84.8 435.27,-88.8 414.27,-88.8 411.27,-84.8 309.73,-84.8 309.73,-48.8 438.27,-48.8 438.27,-84.8"/>
<text text-anchor="middle" x="374" y="-62.6" font-family="Times,serif" font-size="14.00">AppRoutingModule</text>
</g>
<!-- AppRoutingModule&#45;&gt;AppModule -->
<g id="edge3" class="edge">
<title>AppRoutingModule&#45;&gt;AppModule</title>
<path fill="none" stroke="black" d="M374,-85.02C374,-85.02 374,-106.53 374,-106.53"/>
<polygon fill="black" stroke="black" points="370.5,-106.53 374,-116.53 377.5,-106.53 370.5,-106.53"/>
</g>
<!-- LayoutModule -->
<g id="node5" class="node">
<title>LayoutModule</title>
<polygon fill="#8dd3c7" stroke="black" points="555.71,-84.8 552.71,-88.8 531.71,-88.8 528.71,-84.8 456.29,-84.8 456.29,-48.8 555.71,-48.8 555.71,-84.8"/>
<text text-anchor="middle" x="506" y="-62.6" font-family="Times,serif" font-size="14.00">LayoutModule</text>
</g>
<!-- LayoutModule&#45;&gt;AppModule -->
<g id="edge4" class="edge">
<title>LayoutModule&#45;&gt;AppModule</title>
<path fill="none" stroke="black" d="M527.26,-85.02C527.26,-105.17 527.26,-134.8 527.26,-134.8 527.26,-134.8 425.88,-134.8 425.88,-134.8"/>
<polygon fill="black" stroke="black" points="425.88,-131.3 415.88,-134.8 425.88,-138.3 425.88,-131.3"/>
</g>
<!-- HomeModule -->
<g id="node9" class="node">
<title>HomeModule</title>
<polygon fill="#8dd3c7" stroke="black" points="2221.76,-152.8 2218.76,-156.8 2197.76,-156.8 2194.76,-152.8 2128.24,-152.8 2128.24,-116.8 2221.76,-116.8 2221.76,-152.8"/>
<text text-anchor="middle" x="2175" y="-130.6" font-family="Times,serif" font-size="14.00">HomeModule</text>
</g>
<!-- LayoutModule&#45;&gt;HomeModule -->
<g id="edge9" class="edge">
<title>LayoutModule&#45;&gt;HomeModule</title>
<path fill="none" stroke="black" d="M513.09,-84.97C513.09,-88.85 513.09,-91.8 513.09,-91.8 513.09,-91.8 2159.37,-91.8 2159.37,-91.8 2159.37,-91.8 2159.37,-106.31 2159.37,-106.31"/>
<polygon fill="black" stroke="black" points="2155.87,-106.31 2159.37,-116.31 2162.87,-106.31 2155.87,-106.31"/>
</g>
<!-- NavbarComponent  -->
<g id="node14" class="node">
<title>NavbarComponent </title>
<polygon fill="#fb8072" stroke="black" points="1044.03,-152.8 917.97,-152.8 917.97,-116.8 1044.03,-116.8 1044.03,-152.8"/>
<text text-anchor="middle" x="981" y="-130.6" font-family="Times,serif" font-size="14.00">NavbarComponent </text>
</g>
<!-- LayoutModule&#45;&gt;NavbarComponent  -->
<g id="edge14" class="edge">
<title>LayoutModule&#45;&gt;NavbarComponent </title>
<path fill="none" stroke="black" stroke-dasharray="5,2" d="M498.91,-84.95C498.91,-97.07 498.91,-110.8 498.91,-110.8 498.91,-110.8 981,-110.8 981,-110.8 981,-110.8 981,-111.38 981,-111.38"/>
<polygon fill="black" stroke="black" points="977.5,-106.61 981,-116.61 984.5,-106.61 977.5,-106.61"/>
</g>
<!-- SeasonDropDownComponent  -->
<g id="node15" class="node">
<title>SeasonDropDownComponent </title>
<polygon fill="#fb8072" stroke="black" points="899.97,-152.8 712.03,-152.8 712.03,-116.8 899.97,-116.8 899.97,-152.8"/>
<text text-anchor="middle" x="806" y="-130.6" font-family="Times,serif" font-size="14.00">SeasonDropDownComponent </text>
</g>
<!-- LayoutModule&#45;&gt;SeasonDropDownComponent  -->
<g id="edge15" class="edge">
<title>LayoutModule&#45;&gt;SeasonDropDownComponent </title>
<path fill="none" stroke="black" stroke-dasharray="5,2" d="M541.43,-84.82C541.43,-102.17 541.43,-125.8 541.43,-125.8 541.43,-125.8 701.98,-125.8 701.98,-125.8"/>
<polygon fill="black" stroke="black" points="701.98,-129.3 711.98,-125.8 701.98,-122.3 701.98,-129.3"/>
</g>
<!-- SharedModule -->
<g id="node6" class="node">
<title>SharedModule</title>
<polygon fill="#8dd3c7" stroke="black" points="672.42,-84.8 669.42,-88.8 648.42,-88.8 645.42,-84.8 573.58,-84.8 573.58,-48.8 672.42,-48.8 672.42,-84.8"/>
<text text-anchor="middle" x="623" y="-62.6" font-family="Times,serif" font-size="14.00">SharedModule</text>
</g>
<!-- SharedModule&#45;&gt;AppModule -->
<g id="edge5" class="edge">
<title>SharedModule&#45;&gt;AppModule</title>
<path fill="none" stroke="black" d="M623,-85.05C623,-107.82 623,-143.8 623,-143.8 623,-143.8 425.68,-143.8 425.68,-143.8"/>
<polygon fill="black" stroke="black" points="425.68,-140.3 415.68,-143.8 425.68,-147.3 425.68,-140.3"/>
</g>
<!-- SharedModule&#45;&gt;HomeModule -->
<g id="edge10" class="edge">
<title>SharedModule&#45;&gt;HomeModule</title>
<path fill="none" stroke="black" d="M672.35,-54.8C927.04,-54.8 2081.02,-54.8 2081.02,-54.8 2081.02,-54.8 2081.02,-134.8 2081.02,-134.8 2081.02,-134.8 2118.01,-134.8 2118.01,-134.8"/>
<polygon fill="black" stroke="black" points="2118.01,-138.3 2128.01,-134.8 2118.01,-131.3 2118.01,-138.3"/>
</g>
<!-- DriverStandingComponent  -->
<g id="node21" class="node">
<title>DriverStandingComponent </title>
<polygon fill="#fb8072" stroke="black" points="1737.64,-152.8 1566.36,-152.8 1566.36,-116.8 1737.64,-116.8 1737.64,-152.8"/>
<text text-anchor="middle" x="1652" y="-130.6" font-family="Times,serif" font-size="14.00">DriverStandingComponent </text>
</g>
<!-- SharedModule&#45;&gt;DriverStandingComponent  -->
<g id="edge20" class="edge">
<title>SharedModule&#45;&gt;DriverStandingComponent </title>
<path fill="none" stroke="black" stroke-dasharray="5,2" d="M672.28,-72.8C877.31,-72.8 1652,-72.8 1652,-72.8 1652,-72.8 1652,-106.53 1652,-106.53"/>
<polygon fill="black" stroke="black" points="1648.5,-106.53 1652,-116.53 1655.5,-106.53 1648.5,-106.53"/>
</g>
<!-- TableComponent  -->
<g id="node22" class="node">
<title>TableComponent </title>
<polygon fill="#fb8072" stroke="black" points="1548.21,-152.8 1431.79,-152.8 1431.79,-116.8 1548.21,-116.8 1548.21,-152.8"/>
<text text-anchor="middle" x="1490" y="-130.6" font-family="Times,serif" font-size="14.00">TableComponent </text>
</g>
<!-- SharedModule&#45;&gt;TableComponent  -->
<g id="edge21" class="edge">
<title>SharedModule&#45;&gt;TableComponent </title>
<path fill="none" stroke="black" stroke-dasharray="5,2" d="M672.41,-78.8C856.23,-78.8 1490,-78.8 1490,-78.8 1490,-78.8 1490,-106.77 1490,-106.77"/>
<polygon fill="black" stroke="black" points="1486.5,-106.77 1490,-116.77 1493.5,-106.77 1486.5,-106.77"/>
</g>
<!-- HomeComponent -->
<g id="node8" class="node">
<title>HomeComponent</title>
<polygon fill="#ffffb3" stroke="black" points="2550.55,-84.8 2435.45,-84.8 2435.45,-48.8 2550.55,-48.8 2550.55,-84.8"/>
<text text-anchor="middle" x="2493" y="-62.6" font-family="Times,serif" font-size="14.00">HomeComponent</text>
</g>
<!-- HomeComponent&#45;&gt;HomeModule -->
<g id="edge7" class="edge">
<title>HomeComponent&#45;&gt;HomeModule</title>
<path fill="none" stroke="black" d="M2493,-85.09C2493,-107.01 2493,-140.8 2493,-140.8 2493,-140.8 2231.92,-140.8 2231.92,-140.8"/>
<polygon fill="black" stroke="black" points="2231.92,-137.3 2221.92,-140.8 2231.92,-144.3 2231.92,-137.3"/>
</g>
<!-- HomeRoutingModule -->
<g id="node10" class="node">
<title>HomeRoutingModule</title>
<polygon fill="#8dd3c7" stroke="black" points="2411.38,-84.8 2408.38,-88.8 2387.38,-88.8 2384.38,-84.8 2272.62,-84.8 2272.62,-48.8 2411.38,-48.8 2411.38,-84.8"/>
<text text-anchor="middle" x="2342" y="-62.6" font-family="Times,serif" font-size="14.00">HomeRoutingModule</text>
</g>
<!-- HomeRoutingModule&#45;&gt;HomeModule -->
<g id="edge8" class="edge">
<title>HomeRoutingModule&#45;&gt;HomeModule</title>
<path fill="none" stroke="black" d="M2342,-85.07C2342,-103.36 2342,-128.8 2342,-128.8 2342,-128.8 2231.96,-128.8 2231.96,-128.8"/>
<polygon fill="black" stroke="black" points="2231.96,-125.3 2221.96,-128.8 2231.96,-132.3 2231.96,-125.3"/>
</g>
<!-- RaceApiService -->
<g id="node11" class="node">
<title>RaceApiService</title>
<ellipse fill="#fdb462" stroke="black" cx="2175" cy="-66.8" rx="73.55" ry="18"/>
<text text-anchor="middle" x="2175" y="-62.6" font-family="Times,serif" font-size="14.00">RaceApiService</text>
</g>
<!-- RaceApiService&#45;&gt;HomeModule -->
<g id="edge11" class="edge">
<title>RaceApiService&#45;&gt;HomeModule</title>
<path fill="none" stroke="black" d="M2190.63,-84.67C2190.63,-84.67 2190.63,-106.34 2190.63,-106.34"/>
<polygon fill="black" stroke="black" points="2187.13,-106.34 2190.63,-116.34 2194.13,-106.34 2187.13,-106.34"/>
</g>
<!-- NavbarComponent -->
<g id="node12" class="node">
<title>NavbarComponent</title>
<polygon fill="#ffffb3" stroke="black" points="1392.03,-152.8 1269.97,-152.8 1269.97,-116.8 1392.03,-116.8 1392.03,-152.8"/>
<text text-anchor="middle" x="1331" y="-130.6" font-family="Times,serif" font-size="14.00">NavbarComponent</text>
</g>
<!-- NavbarComponent&#45;&gt;LayoutModule -->
<g id="edge12" class="edge">
<title>NavbarComponent&#45;&gt;LayoutModule</title>
<path fill="none" stroke="black" d="M1331,-116.73C1331,-107.34 1331,-97.8 1331,-97.8 1331,-97.8 484.74,-97.8 484.74,-97.8 484.74,-97.8 484.74,-94.83 484.74,-94.83"/>
<polygon fill="black" stroke="black" points="488.24,-94.83 484.74,-84.83 481.24,-94.83 488.24,-94.83"/>
</g>
<!-- SeasonDropDownComponent -->
<g id="node13" class="node">
<title>SeasonDropDownComponent</title>
<polygon fill="#ffffb3" stroke="black" points="1251.97,-152.8 1068.03,-152.8 1068.03,-116.8 1251.97,-116.8 1251.97,-152.8"/>
<text text-anchor="middle" x="1160" y="-130.6" font-family="Times,serif" font-size="14.00">SeasonDropDownComponent</text>
</g>
<!-- SeasonDropDownComponent&#45;&gt;LayoutModule -->
<g id="edge13" class="edge">
<title>SeasonDropDownComponent&#45;&gt;LayoutModule</title>
<path fill="none" stroke="black" d="M1160,-116.66C1160,-110.34 1160,-104.8 1160,-104.8 1160,-104.8 470.57,-104.8 470.57,-104.8 470.57,-104.8 470.57,-94.91 470.57,-94.91"/>
<polygon fill="black" stroke="black" points="474.07,-94.91 470.57,-84.91 467.07,-94.91 474.07,-94.91"/>
</g>
<!-- SeasonFilterPipe -->
<g id="node16" class="node">
<title>SeasonFilterPipe</title>
<polygon fill="#ffffb3" stroke="black" points="2703.37,-84.8 2592.63,-84.8 2592.63,-48.8 2703.37,-48.8 2703.37,-84.8"/>
<text text-anchor="middle" x="2648" y="-62.6" font-family="Times,serif" font-size="14.00">SeasonFilterPipe</text>
</g>
<!-- PipesModule -->
<g id="node17" class="node">
<title>PipesModule</title>
<polygon fill="#8dd3c7" stroke="black" points="2692.88,-152.8 2689.88,-156.8 2668.88,-156.8 2665.88,-152.8 2603.12,-152.8 2603.12,-116.8 2692.88,-116.8 2692.88,-152.8"/>
<text text-anchor="middle" x="2648" y="-130.6" font-family="Times,serif" font-size="14.00">PipesModule</text>
</g>
<!-- SeasonFilterPipe&#45;&gt;PipesModule -->
<g id="edge16" class="edge">
<title>SeasonFilterPipe&#45;&gt;PipesModule</title>
<path fill="none" stroke="black" d="M2648,-85.02C2648,-85.02 2648,-106.53 2648,-106.53"/>
<polygon fill="black" stroke="black" points="2644.5,-106.53 2648,-116.53 2651.5,-106.53 2644.5,-106.53"/>
</g>
<!-- SeasonFilterPipe  -->
<g id="node18" class="node">
<title>SeasonFilterPipe </title>
<polygon fill="#fb8072" stroke="black" points="2705.37,-220.8 2590.63,-220.8 2590.63,-184.8 2705.37,-184.8 2705.37,-220.8"/>
<text text-anchor="middle" x="2648" y="-198.6" font-family="Times,serif" font-size="14.00">SeasonFilterPipe </text>
</g>
<!-- PipesModule&#45;&gt;SeasonFilterPipe  -->
<g id="edge17" class="edge">
<title>PipesModule&#45;&gt;SeasonFilterPipe </title>
<path fill="none" stroke="black" stroke-dasharray="5,2" d="M2648,-153.02C2648,-153.02 2648,-174.53 2648,-174.53"/>
<polygon fill="black" stroke="black" points="2644.5,-174.53 2648,-184.53 2651.5,-174.53 2644.5,-174.53"/>
</g>
<!-- DriverStandingComponent -->
<g id="node19" class="node">
<title>DriverStandingComponent</title>
<polygon fill="#ffffb3" stroke="black" points="2060.64,-152.8 1893.36,-152.8 1893.36,-116.8 2060.64,-116.8 2060.64,-152.8"/>
<text text-anchor="middle" x="1977" y="-130.6" font-family="Times,serif" font-size="14.00">DriverStandingComponent</text>
</g>
<!-- DriverStandingComponent&#45;&gt;SharedModule -->
<g id="edge18" class="edge">
<title>DriverStandingComponent&#45;&gt;SharedModule</title>
<path fill="none" stroke="black" d="M1977,-116.51C1977,-94.59 1977,-60.8 1977,-60.8 1977,-60.8 682.39,-60.8 682.39,-60.8"/>
<polygon fill="black" stroke="black" points="682.39,-57.3 672.39,-60.8 682.39,-64.3 682.39,-57.3"/>
</g>
<!-- TableComponent -->
<g id="node20" class="node">
<title>TableComponent</title>
<polygon fill="#ffffb3" stroke="black" points="1875.7,-152.8 1762.3,-152.8 1762.3,-116.8 1875.7,-116.8 1875.7,-152.8"/>
<text text-anchor="middle" x="1819" y="-130.6" font-family="Times,serif" font-size="14.00">TableComponent</text>
</g>
<!-- TableComponent&#45;&gt;SharedModule -->
<g id="edge19" class="edge">
<title>TableComponent&#45;&gt;SharedModule</title>
<path fill="none" stroke="black" d="M1819,-116.58C1819,-96.43 1819,-66.8 1819,-66.8 1819,-66.8 682.49,-66.8 682.49,-66.8"/>
<polygon fill="black" stroke="black" points="682.49,-63.3 672.49,-66.8 682.49,-70.3 682.49,-63.3"/>
</g>
</g>
</svg>
